<svg width="32" height="33" viewBox="0 0 32 33" fill="none" xmlns="http://www.w3.org/2000/svg">
<path d="M6.66662 17.5926L20 17.5926L15.6133 21.9793C15.4883 22.1032 15.3891 22.2507 15.3214 22.4132C15.2537 22.5756 15.2189 22.7499 15.2189 22.9259C15.2189 23.1019 15.2537 23.2762 15.3214 23.4387C15.3891 23.6012 15.4883 23.7486 15.6133 23.8726C15.8631 24.1209 16.201 24.2603 16.5533 24.2603C16.9055 24.2603 17.2435 24.1209 17.4933 23.8726L23.2133 18.1393C23.7141 17.6415 23.997 16.9654 24 16.2593C23.9935 15.5578 23.7108 14.8871 23.2133 14.3926L17.4933 8.65928C17.369 8.53583 17.2216 8.43809 17.0595 8.37161C16.8974 8.30514 16.7238 8.27125 16.5486 8.27187C16.3734 8.27249 16.2 8.30761 16.0384 8.37522C15.8768 8.44284 15.7301 8.54163 15.6066 8.66594C15.4832 8.79026 15.3854 8.93768 15.319 9.09977C15.2525 9.26186 15.2186 9.43546 15.2192 9.61066C15.2198 9.78585 15.255 9.9592 15.3226 10.1208C15.3902 10.2824 15.489 10.4292 15.6133 10.5526L20 14.9259L6.66662 14.9259C6.313 14.9259 5.97386 15.0664 5.72381 15.3165C5.47376 15.5665 5.33329 15.9056 5.33329 16.2593C5.33329 16.6129 5.47376 16.952 5.72381 17.2021C5.97386 17.4521 6.313 17.5926 6.66662 17.5926Z" fill="white"/>
</svg>
