<svg width="16" height="17" viewBox="0 0 16 17" fill="none" xmlns="http://www.w3.org/2000/svg">
<g clip-path="url(#clip0_3414_134)">
<path d="M15.142 3.61082C14.9545 3.38578 14.7197 3.20479 14.4544 3.0807C14.189 2.95661 13.8996 2.89246 13.6067 2.89282H2.828L2.8 2.65882C2.7427 2.17243 2.50892 1.72398 2.14299 1.39847C1.77706 1.07297 1.30442 0.89305 0.814667 0.892822L0.666667 0.892822C0.489856 0.892822 0.320286 0.96306 0.195262 1.08808C0.0702379 1.21311 0 1.38268 0 1.55949C0 1.7363 0.0702379 1.90587 0.195262 2.03089C0.320286 2.15592 0.489856 2.22616 0.666667 2.22616H0.814667C0.977956 2.22618 1.13556 2.28613 1.25758 2.39463C1.3796 2.50314 1.45756 2.65265 1.47667 2.81482L2.394 10.6148C2.48923 11.426 2.87899 12.174 3.48927 12.7168C4.09956 13.2596 4.8879 13.5595 5.70467 13.5595H12.6667C12.8435 13.5595 13.013 13.4893 13.1381 13.3642C13.2631 13.2392 13.3333 13.0696 13.3333 12.8928C13.3333 12.716 13.2631 12.5464 13.1381 12.4214C13.013 12.2964 12.8435 12.2262 12.6667 12.2262H5.70467C5.29204 12.225 4.88987 12.0962 4.55329 11.8575C4.21671 11.6188 3.96221 11.2819 3.82467 10.8928H11.7713C12.5529 10.8929 13.3096 10.6183 13.9092 10.1171C14.5089 9.61592 14.9134 8.91995 15.052 8.15082L15.5753 5.24816C15.6276 4.96016 15.6158 4.6642 15.5409 4.38125C15.4661 4.09829 15.3299 3.83527 15.142 3.61082ZM14.2667 5.01149L13.7427 7.91416C13.6594 8.37616 13.4163 8.79415 13.0559 9.09495C12.6955 9.39576 12.2408 9.5602 11.7713 9.55949H3.61267L2.98533 4.22616H13.6067C13.7046 4.22557 13.8015 4.24657 13.8904 4.28766C13.9793 4.32875 14.058 4.38892 14.121 4.46389C14.184 4.53887 14.2297 4.6268 14.2549 4.72145C14.2801 4.81609 14.2841 4.91512 14.2667 5.01149Z" fill="#181818"/>
<path d="M4.66683 16.8932C5.40321 16.8932 6.00016 16.2963 6.00016 15.5599C6.00016 14.8235 5.40321 14.2266 4.66683 14.2266C3.93045 14.2266 3.3335 14.8235 3.3335 15.5599C3.3335 16.2963 3.93045 16.8932 4.66683 16.8932Z" fill="#181818"/>
<path d="M11.3333 16.8932C12.0697 16.8932 12.6667 16.2963 12.6667 15.5599C12.6667 14.8235 12.0697 14.2266 11.3333 14.2266C10.597 14.2266 10 14.8235 10 15.5599C10 16.2963 10.597 16.8932 11.3333 16.8932Z" fill="#181818"/>
</g>
<defs>
<clipPath id="clip0_3414_134">
<rect width="16" height="16" fill="white" transform="translate(0 0.892822)"/>
</clipPath>
</defs>
</svg>
